<svg viewBox="0 0 22 22" xmlns="http://www.w3.org/2000/svg">
<path fill-rule="evenodd" clip-rule="evenodd" d="M18.7782 20.8596C19.364 21.4454 20.3137 21.4454 20.8995 20.8596C21.4853 20.2738 21.4853 19.3241 20.8995 18.7383L13.1213 10.9601L20.8995 3.18198C21.4853 2.59619 21.4853 1.64645 20.8995 1.06066C20.3137 0.474873 19.3639 0.474874 18.7781 1.06066L11 8.8388L3.22185 1.06065C2.63606 0.474861 1.68632 0.474861 1.10053 1.06065C0.514745 1.64643 0.514745 2.59618 1.10053 3.18197L8.87868 10.9601L1.10047 18.7383C0.514686 19.3241 0.514686 20.2739 1.10047 20.8596C1.68626 21.4454 2.63601 21.4454 3.22179 20.8596L11 13.0814L18.7782 20.8596Z"/>
</svg>
