<svg viewBox="0 0 22 22" xmlns="http://www.w3.org/2000/svg">
<path fill-rule="evenodd" clip-rule="evenodd" d="M18.7782 20.8597C19.364 21.4455 20.3137 21.4455 20.8995 20.8597C21.4853 20.2739 21.4853 19.3241 20.8995 18.7383L13.1213 10.9601L20.8995 3.18201C21.4853 2.59622 21.4853 1.64648 20.8995 1.06069C20.3137 0.474904 19.3639 0.474904 18.7781 1.06069L11 8.83883L3.22185 1.06068C2.63606 0.474891 1.68632 0.474891 1.10053 1.06068C0.514745 1.64646 0.514745 2.59621 1.10053 3.182L8.87868 10.9601L1.10047 18.7384C0.514686 19.3241 0.514686 20.2739 1.10047 20.8597C1.68626 21.4455 2.63601 21.4455 3.22179 20.8597L11 13.0815L18.7782 20.8597Z" fill-opacity="0.87"/>
<linearGradient id="linear" x1="6.55213" y1="0.621338" x2="23.6492" y2="10.9356" gradientUnits="userSpaceOnUse">
<stop offset="0.248619" stop-color="#654EA3"/>
<stop offset="1" stop-color="#5F4B8B"/>
</linearGradient>
</svg>
