<svg width="35" height="29" viewBox="0 0 35 29" fill="none" xmlns="http://www.w3.org/2000/svg">
<path d="M34.0715 3.30705C33.5238 3.55092 32.9607 3.75674 32.3854 3.92384C33.0666 3.15045 33.5859 2.24045 33.9029 1.24464C33.974 1.02144 33.9003 0.777113 33.7176 0.631129C33.535 0.485032 33.2815 0.467532 33.0805 0.587097C31.8587 1.31465 30.5404 1.8375 29.1582 2.14324C27.7659 0.777339 25.8749 1.37821e-08 23.9199 1.37821e-08C19.7933 1.37821e-08 16.4361 3.3705 16.4361 7.51337C16.4361 7.83966 16.4566 8.16415 16.4974 8.48411C11.3767 8.03273 6.61605 5.50584 3.34695 1.47982C3.23044 1.33632 3.05096 1.25898 2.86721 1.27377C2.68334 1.28823 2.51814 1.39232 2.42526 1.55231C1.76221 2.69455 1.41169 4.00095 1.41169 5.33016C1.41169 7.14056 2.0555 8.85827 3.19277 10.2005C2.84697 10.0802 2.5114 9.92995 2.19112 9.75145C2.01918 9.65537 1.80933 9.65684 1.63851 9.75518C1.46758 9.85352 1.36041 10.0344 1.35591 10.2321C1.35512 10.2654 1.35512 10.2987 1.35512 10.3325C1.35512 13.0348 2.80378 15.4677 5.01861 16.7938C4.82833 16.7747 4.63817 16.747 4.44924 16.7108C4.25447 16.6734 4.05418 16.742 3.92284 16.8911C3.79126 17.0401 3.74774 17.2479 3.80836 17.4376C4.62816 20.0072 6.73885 21.8974 9.29049 22.4736C7.17417 23.8044 4.754 24.5015 2.21339 24.5015C1.68327 24.5015 1.15011 24.4702 0.628317 24.4082C0.369105 24.3773 0.121252 24.5309 0.0329735 24.7784C-0.0553046 25.026 0.038259 25.3021 0.258786 25.444C3.5226 27.545 7.29652 28.6555 11.1723 28.6555C18.7917 28.6555 23.5582 25.0483 26.2149 22.0221C29.5279 18.2488 31.428 13.2543 31.428 8.31939C31.428 8.11323 31.4248 7.90503 31.4185 7.69752C32.7256 6.70882 33.8509 5.51227 34.7667 4.137C34.9058 3.92813 34.8907 3.65208 34.7296 3.45981C34.5686 3.26742 34.3004 3.20521 34.0715 3.30705Z" fill="white"/>
</svg>
